<svg width="160" height="160" viewBox="0 0 160 160" xmlns="http://www.w3.org/2000/svg">
  <defs>
    <linearGradient id="moltly-gradient" x1="20" y1="20" x2="140" y2="140" gradientUnits="userSpaceOnUse">
      <stop offset="0" stop-color="#ff9b7c"/>
      <stop offset="1" stop-color="#ff7958"/>
    </linearGradient>
    <linearGradient id="moltly-leg" x1="0" y1="0" x2="1" y2="1">
      <stop offset="0" stop-color="#f5f6f9" stop-opacity="0.8"/>
      <stop offset="1" stop-color="#f5f6f9" stop-opacity="0.2"/>
    </linearGradient>
  </defs>
  <circle cx="80" cy="80" r="72" fill="url(#moltly-gradient)"/>
  <circle cx="80" cy="72" r="26" fill="#0f1419" opacity="0.9"/>
  <circle cx="80" cy="105" r="18" fill="#0f1419" opacity="0.95"/>
  <path d="M36 80c6-18 18-32 30-36" stroke="url(#moltly-leg)" stroke-width="8" stroke-linecap="round"/>
  <path d="M124 80c-6-18-18-32-30-36" stroke="url(#moltly-leg)" stroke-width="8" stroke-linecap="round"/>
  <path d="M40 106c9-6 24-8 36-4" stroke="url(#moltly-leg)" stroke-width="8" stroke-linecap="round"/>
  <path d="M120 106c-9-6-24-8-36-4" stroke="url(#moltly-leg)" stroke-width="8" stroke-linecap="round"/>
  <path d="M52 130c8-8 26-12 40-8" stroke="url(#moltly-leg)" stroke-width="8" stroke-linecap="round"/>
  <path d="M108 130c-8-8-26-12-40-8" stroke="url(#moltly-leg)" stroke-width="8" stroke-linecap="round"/>
  <path d="M80 52v-16" stroke="#f5f6f9" stroke-width="6" stroke-linecap="round"/>
  <path d="M56 64l-10-10" stroke="#f5f6f9" stroke-width="6" stroke-linecap="round"/>
  <path d="M104 64l10-10" stroke="#f5f6f9" stroke-width="6" stroke-linecap="round"/>
  <circle cx="70" cy="70" r="4" fill="#ffcf73"/>
  <circle cx="90" cy="70" r="4" fill="#ffcf73"/>
</svg>
